<?xml version="1.0" encoding="utf-8"?>
<!-- Generator: Adobe Illustrator 26.5.0, SVG Export Plug-In . SVG Version: 6.00 Build 0)  -->
<svg version="1.1" id="Layer_1" xmlns="http://www.w3.org/2000/svg" xmlns:xlink="http://www.w3.org/1999/xlink" x="0px" y="0px"
	 viewBox="0 0 228 167" style="enable-background:new 0 0 228 167;" xml:space="preserve">
<style type="text/css">
	.st0{fill:#1C6192;}
</style>
<g>
	<g>
		<path class="st0" d="M43.4,1.7C22.3,1.7,5.6,14.5-0.3,33.4l14.9,5.3c3.6-12.7,14.1-22.1,28.8-22.1c18.3,0,30.2,14.7,30.2,32.2
			c0,3.6-0.5,7-1.4,10.3l14.9,5.3c1.5-4.8,2.4-10,2.4-15.5C89.5,21.9,70,1.7,43.4,1.7z"/>
		<polygon class="st0" points="187.5,48 223.1,3.3 203.6,3.3 171.1,44.1 171.1,3.3 155.5,3.3 155.5,89.5 169,94.3 171.1,94.3 
			171.1,53.2 206.9,94.3 227.5,94.3 		"/>
	</g>
	<g>
		<path class="st0" d="M7.6,153.5c-3.1-1.1-6.7-2.8-6.7-6.8c0-3,2.7-6,7-6c4.4,0,6.9,3.4,6.9,3.4l-2.5,2.5c0,0-1.8-2.4-4.4-2.4
			c-1.8,0-3.3,1.1-3.3,2.6c0,1.9,1.7,2.4,4.6,3.5c3.3,1.2,6,2.7,6,6.5c0,3.9-3.4,5.9-7.4,5.9c-5.3,0-7.8-4.3-7.8-4.3l2.7-2.3
			c0,0,1.8,3.2,5,3.2c1.8,0,3.7-0.7,3.7-2.5C11.5,155,10.1,154.3,7.6,153.5z"/>
		<path class="st0" d="M49.5,141.1h3.7l8.3,21.3h-3.7l-1.9-5h-9l-1.9,5h-3.7L49.5,141.1z M48.2,133.8c1.3,0,2.4,1.1,2.4,2.4
			c0,1.3-1.1,2.4-2.4,2.4c-1.3,0-2.4-1.1-2.4-2.4C45.8,134.9,46.9,133.8,48.2,133.8z M48.1,153.9h6.4l-3.2-8.3L48.1,153.9z
			 M54.5,133.8c1.3,0,2.4,1.1,2.4,2.4c0,1.3-1.1,2.4-2.4,2.4c-1.3,0-2.4-1.1-2.4-2.4C52.1,134.9,53.1,133.8,54.5,133.8z"/>
		<path class="st0" d="M94.4,141.1h3.7l8.3,21.3h-3.7l-1.9-5h-9l-1.9,5h-3.7L94.4,141.1z M93.1,133.8c1.3,0,2.4,1.1,2.4,2.4
			c0,1.3-1.1,2.4-2.4,2.4c-1.3,0-2.4-1.1-2.4-2.4C90.7,134.9,91.8,133.8,93.1,133.8z M93.1,153.9h6.4l-3.2-8.3L93.1,153.9z
			 M99.4,133.8c1.3,0,2.4,1.1,2.4,2.4c0,1.3-1.1,2.4-2.4,2.4c-1.3,0-2.4-1.1-2.4-2.4C97,134.9,98.1,133.8,99.4,133.8z"/>
		<path class="st0" d="M136.1,144.5h-5.9v-3.5h15.4v3.5h-5.9v17.8h-3.6V144.5z"/>
		<path class="st0" d="M173,141.1h3.6v21.3H173V141.1z"/>
		<path class="st0" d="M226.2,151.7c0,6.3-4.6,11-10.8,11c-6.2,0-10.8-4.7-10.8-11c0-6.3,4.6-11,10.8-11
			C221.7,140.7,226.2,145.4,226.2,151.7z M222.5,151.7c0-4.1-2.8-7.5-7.1-7.5c-4.3,0-7.1,3.4-7.1,7.5c0,4.1,2.8,7.5,7.1,7.5
			C219.8,159.2,222.5,155.8,222.5,151.7z M212.3,133.8c1.3,0,2.4,1.1,2.4,2.4c0,1.3-1.1,2.4-2.4,2.4c-1.3,0-2.4-1.1-2.4-2.4
			C209.9,134.9,211,133.8,212.3,133.8z M218.6,133.8c1.3,0,2.4,1.1,2.4,2.4c0,1.3-1.1,2.4-2.4,2.4c-1.3,0-2.4-1.1-2.4-2.4
			C216.2,134.9,217.3,133.8,218.6,133.8z"/>
	</g>
	<rect y="116" class="st0" width="228" height="2"/>
</g>
</svg>
