<?xml version="1.0" encoding="utf-8"?>
<!-- Generator: Adobe Illustrator 25.0.0, SVG Export Plug-In . SVG Version: 6.00 Build 0)  -->
<svg version="1.1" id="Layer_1" xmlns="http://www.w3.org/2000/svg" xmlns:xlink="http://www.w3.org/1999/xlink" x="0px" y="0px"
	 viewBox="0 0 554.1 554.1" style="enable-background:new 0 0 554.1 554.1;" xml:space="preserve">
<style type="text/css">
	.st0{fill-rule:evenodd;clip-rule:evenodd;fill:#FB3741;}
</style>
<g id="Layer_15">
	<g>
		<path class="st0" d="M291,358.8c0.9-3.2,1.7-5.8,2.3-7c9.6-36.1,42.8-83,65.8-111c14.6-17.8,39.3-36.1,30.6-38.5
			c0,0,10.8-7.6,14.3-15.7c1.5-3.5,0.9-3.5-0.9-7.3c0,0,36.4-29.4,23.3-34.4c0,0-106.3,67.9-143.6,138.9c0-0.6-0.3-0.9-0.3-1.2
			c-2.3-16.3-6.4-35.2-13.1-55.9c0-0.3,0-0.3-0.3-0.6c1.2,0.6,2.3,0.9,3.5,1.5c47.5,16.9,62-14,62-14s-9.6,2.3-36.4,0.6
			c-18.9-1.2-36.1-21.6-44.6-33.5c-0.3-0.3-0.6-0.6-0.6-0.9l0,0C226.9,109.2,178.2,9.3,178.2,9.3s-16.6-5.2-16,7.9
			c0,0-24.8,0.3-24.8,9s3.5,14.6,3.5,14.6s-10.5-1.2,0,16.9c10.5,18.1,67,136.6,78.9,190.2s11.9,59.1,14.6,103.7
			c1.7,34.4-4.7,104.9-7.9,137.2c0,0,0,0-0.3,0v0.3c-14.6,5.8-31.8,18.9-44,30.3c-21.6,20.1-16,24.5-13.7,26.5
			c2.3,2,128.7-41.7,148.6-46c12.5-2.6,2.9-12.2,2.9-12.2c11.4-7.6,5-11.9,5-11.9c-10.2-5-21.3-1.2-21.3-1.2s-2.6-3.5-5.8-3.5
			c-2.3-0.3-7.9,0.9-14.6,2.9c-1.7,0.3-3.2,0.9-5,1.2c3.8-27.7,8.7-66.1,11.9-109.5C291,363.2,291,360.9,291,358.8z"/>
	</g>
</g>
</svg>
